<svg xmlns="http://www.w3.org/2000/svg" viewBox="0 0 944.78 116.95" fill="#fff"><path d="M302.07 34.61l-36.66 82.34h-31.74L285.7.09h32.75l52.03 116.86h-31.74l-36.67-82.34zM455.62 0h31.58v116.95h-28.24l-47.45-65.83.67 65.83H380.6V0h28.24l47.45 66.16L455.62 0zm149.82 0v25.73h-34.42v91.22h-31.74V25.73h-34.42V0h100.58zm17.67 0h90.72v25.73h-90.72zm90.73 91.2h-60.15V71.85h54.32V45.08h-84.9v71.87h90.73zM117.29.09h31.74v25.64h-31.74zm106.59 0h-31.74v44.99h-74.85v71.87h31.74v-45.1h43.11v45.1h31.74zm615.47 116.86l-51.46-59.14L835.17 0h-38.42l-34.09 42.77V0h-31.24v46.73h0v70.22h31.24V74.52l35.92 42.43zM92.52 9.64C85.57 3.22 76.09 0 64.08 0L0 .09v25.63h64.45c3.15 0 5.65.88 7.47 2.64 1.83 1.76 2.74 4.38 2.74 7.32s-.91 5.01-2.74 6.77-4.32 2.64-7.48 2.64L0 45.08v71.88h31.74v-45.1h32.34c12.01 0 21.49-3.21 28.44-9.64 6.94-6.43 10.42-15.46 10.42-26.53 0-11.09-3.48-19.62-10.42-26.05zm812.87 107.31c14.13 0 22.3-3.16 29.14-9.49 6.83-6.33 10.25-15.28 10.25-26.17s-3.42-20.4-10.25-26.73c-6.84-6.32-16.16-9.49-30.29-9.49h-23.12c-3.16 0-5.66-.88-7.5-2.64-1.83-1.76-2.75-3.84-2.75-6.79s1.2-5.74 2.94-7.41 4.12-2.51 7.12-2.51l58.2.01V0h-57.36c-12.36 0-21.89 3.16-29 9.74s-10.03 14.85-10.03 25.91 3.55 19.74 10.45 26.13 16.36 10.07 28.36 10.07h24.03c3.14 0 5.62.87 7.43 2.62 1.82 1.75 2.73 3.9 2.73 6.82s-.91 5.54-2.73 7.28c-1.82 1.75-4.3 2.62-7.43 2.62h-58.33v25.76h58.14z"></path></svg>