<?xml version="1.0" encoding="utf-8"?>
<!-- Generator: Adobe Illustrator 25.3.1, SVG Export Plug-In . SVG Version: 6.00 Build 0)  -->
<svg version="1.1" id="圖層_1" xmlns="http://www.w3.org/2000/svg" xmlns:xlink="http://www.w3.org/1999/xlink" x="0px" y="0px"
	 width="155px" height="41px" viewBox="0 0 155 41" style="enable-background:new 0 0 155 41;" xml:space="preserve">
<style type="text/css">
	.st0{fill-rule:evenodd;clip-rule:evenodd;fill:#FFFFFF;}
	.st1{fill:#FFFFFF;}
</style>
<g>
	<path class="st0" d="M44.7,7c0.1-0.6,0.5-0.9,1.7-0.9h5.3l-2.1,11.8c-0.4,2.1-0.6,2.8,1.9,2.7h8.1L59,21.7c-0.5,0.8-0.8,1-1.7,1H44
		c-1.4-0.1-2-0.3-1.9-1.2L44.7,7z M67.9,21.8c-0.2,0.7-0.9,0.8-1.6,0.8l0,0h-4.5h-0.6c0.9-5.2,1.8-10.5,2.7-15.7
		c0.2-0.8,1-0.9,1.7-0.9h5.1C69.7,11.3,68.8,16.6,67.9,21.8 M96.1,6.1c-0.7,0-1.5,0.1-1.7,0.9c-0.8,4.6-1.6,9.1-2.4,13.7h-2.3
		L86,6.1h-5c-2.1,0.1-2.4,0.6-3.4,2.3l-8.2,14.3h4.4c1.3,0,1.7-0.4,2.2-1.2c0.3-0.5,0.4-0.7,0.6-1.1h3c0.9,0,1.2-0.2,1.6-0.8
		c0.2-0.4,0.5-0.8,0.7-1.2h-4.2l3.8-6.8l2.2,11.1h11.9c1.6-0.1,2.5-0.9,2.7-2.1l1.3-7.5l5.5,9.5h4.4c0.7,0,1.3-0.4,1.4-1l2.7-15.5
		h-4.9c-0.6,0-1.3,0.1-1.5,0.8l-1.5,8.7l-5.5-9.5C98.9,6.1,97.5,6.1,96.1,6.1"/>
	<path class="st0" d="M126,7c0.1-0.6,0.5-0.9,1.7-0.9h5.2l-2.1,11.8c-0.4,2.1-0.6,2.8,1.9,2.7h8.1l-0.6,1.1c-0.5,0.8-0.8,1-1.7,1
		h-13.1c-1.4-0.1-2-0.3-1.9-1.2L126,7z M149.1,21.8c-0.2,0.7-0.9,0.8-1.6,0.8l0,0H143h-0.6c0.9-5.2,1.8-10.5,2.7-15.7
		c0.2-0.8,1-0.9,1.7-0.9h5.1C150.9,11.3,150,16.6,149.1,21.8"/>
	<path class="st1" d="M138.5,23h-13.1c-1-0.1-1.6-0.2-2-0.6c-0.2-0.2-0.3-0.5-0.2-0.9L125.7,7c0.2-1,1.1-1.1,2-1.1h5.5L131,18.1
		c-0.2,1-0.3,1.6-0.1,1.9c0.2,0.2,0.7,0.3,1.7,0.3l8.6,0l-0.8,1.5C139.9,22.7,139.5,23,138.5,23z M127.7,6.4c-1.2,0-1.4,0.3-1.4,0.7
		v0l-2.5,14.5c0,0.3,0,0.4,0.1,0.5c0.2,0.3,0.9,0.3,1.5,0.4h13.1c0.8,0,1-0.1,1.5-0.9l0.4-0.7h-7.6c-1.2,0-1.8-0.1-2.2-0.5
		c-0.4-0.5-0.3-1.2-0.1-2.4l0-0.2l2-11.5H127.7z M147.5,22.9h-5.4l0.1-0.3c0.5-2.6,0.9-5.2,1.4-7.9c0.4-2.6,0.9-5.2,1.3-7.8
		c0.3-1.1,1.5-1.1,2-1.1h5.4l-0.1,0.3c-0.9,4.5-1.6,9.1-2.4,13.5l-0.4,2.3C149.1,22.9,148,22.9,147.5,22.9z M142.7,22.3h4.8
		c0.8,0,1.2-0.2,1.3-0.6l0.4-2.3c0.7-4.3,1.5-8.7,2.3-13.1h-4.8c-0.9,0-1.3,0.2-1.4,0.7c-0.4,2.6-0.9,5.2-1.3,7.8
		C143.6,17.3,143.2,19.8,142.7,22.3z"/>
	<polygon class="st0" points="44.7,27.1 49.9,27.1 49.9,28.6 46.8,28.6 46.8,29.7 49.4,29.7 49.4,31.1 46.8,31.1 46.8,33.9 
		44.7,33.9 	"/>
	<path class="st0" d="M56.6,31.9h-3.8c0,0.3,0.1,0.5,0.2,0.7c0.2,0.2,0.4,0.3,0.7,0.3c0.2,0,0.4,0,0.5-0.1s0.2-0.2,0.3-0.3l1.8,0.2
		c-0.3,0.5-0.6,0.8-1,1.1c-0.4,0.2-1,0.3-1.7,0.3c-0.6,0-1.2-0.1-1.5-0.3c-0.4-0.2-0.7-0.5-0.9-0.9C51.1,32.4,51,32,51,31.4
		c0-0.8,0.2-1.4,0.7-1.9s1.2-0.7,2-0.7c0.7,0,1.3,0.1,1.7,0.3c0.4,0.2,0.7,0.5,0.9,0.9s0.3,0.9,0.3,1.6
		C56.6,31.6,56.6,31.9,56.6,31.9z M54.7,31c0-0.4-0.1-0.6-0.3-0.8C54.3,30,54.1,30,53.8,30s-0.5,0.1-0.7,0.4
		c-0.1,0.1-0.2,0.4-0.2,0.7h1.8V31z"/>
	<path class="st0" d="M63.6,31.9h-3.8c0,0.3,0.1,0.5,0.2,0.7c0.2,0.2,0.4,0.3,0.7,0.3c0.2,0,0.4,0,0.5-0.1s0.2-0.2,0.3-0.3l1.8,0.2
		c-0.3,0.5-0.6,0.8-1,1.1c-0.4,0.2-1,0.3-1.7,0.3c-0.6,0-1.2-0.1-1.5-0.3c-0.4-0.2-0.7-0.5-0.9-0.9s-0.4-0.9-0.4-1.4
		c0-0.8,0.2-1.4,0.7-1.9s1.2-0.7,2-0.7c0.7,0,1.3,0.1,1.7,0.3c0.4,0.2,0.7,0.5,0.9,0.9s0.3,0.9,0.3,1.6v0.2H63.6z M61.6,31
		c0-0.4-0.1-0.6-0.3-0.8C61.2,30,61,30,60.7,30s-0.5,0.1-0.7,0.4c-0.1,0.1-0.2,0.4-0.2,0.7h1.8V31z"/>
	<rect x="65.1" y="27.1" class="st0" width="1.9" height="6.8"/>
	<path class="st0" d="M73.6,27.1V29h1v1.4h-1v1.7c0,0.2,0,0.3,0.1,0.4c0.1,0.1,0.2,0.2,0.3,0.2c0.1,0,0.3,0,0.6-0.1l0.1,1.3
		c-0.5,0.1-0.9,0.2-1.3,0.2c-0.5,0-0.8-0.1-1-0.2c-0.2-0.1-0.4-0.3-0.5-0.5s-0.2-0.6-0.2-1.2v-1.7H71V29h0.7v-0.9L73.6,27.1z"/>
	<path class="st0" d="M76.1,27.1H78v2.5c0.3-0.3,0.5-0.5,0.8-0.6s0.5-0.2,0.9-0.2c0.5,0,0.9,0.2,1.2,0.5c0.3,0.3,0.4,0.8,0.4,1.4
		v3.1h-1.9v-2.7c0-0.3-0.1-0.5-0.2-0.7c-0.1-0.1-0.3-0.2-0.5-0.2s-0.4,0.1-0.5,0.3C78.1,30.7,78,31,78,31.4v2.4h-1.9
		C76.1,33.8,76.1,27.1,76.1,27.1z"/>
	<path class="st0" d="M88.5,31.9h-3.8c0,0.3,0.1,0.5,0.2,0.7c0.2,0.2,0.4,0.3,0.7,0.3c0.2,0,0.4,0,0.5-0.1s0.2-0.2,0.3-0.3l1.8,0.2
		c-0.3,0.5-0.6,0.8-1,1.1c-0.4,0.2-1,0.3-1.7,0.3c-0.6,0-1.2-0.1-1.5-0.3c-0.4-0.2-0.7-0.5-0.9-0.9c-0.2-0.4-0.4-0.9-0.4-1.4
		c0-0.8,0.2-1.4,0.7-1.9s1.2-0.7,2-0.7c0.7,0,1.3,0.1,1.7,0.3c0.4,0.2,0.7,0.5,0.9,0.9c0.2,0.4,0.3,0.9,0.3,1.6v0.2H88.5z M86.6,31
		c0-0.4-0.1-0.6-0.3-0.8C86.1,30,85.9,30,85.7,30c-0.3,0-0.5,0.1-0.7,0.4c-0.1,0.1-0.2,0.4-0.2,0.7h1.8V31z"/>
	<path class="st0" d="M97.7,27.1v6.8h-1.8v-0.7c-0.2,0.3-0.5,0.5-0.7,0.6C95,33.9,94.7,34,94.3,34c-0.7,0-1.2-0.3-1.5-0.8
		c-0.4-0.5-0.5-1.1-0.5-1.9c0-0.8,0.2-1.4,0.6-1.9c0.4-0.4,0.9-0.6,1.5-0.6c0.3,0,0.6,0,0.8,0.1c0.2,0.1,0.4,0.2,0.6,0.4V27
		L97.7,27.1L97.7,27.1z M95.8,31.4c0-0.4-0.1-0.7-0.2-0.9c-0.2-0.2-0.4-0.3-0.6-0.3s-0.4,0.1-0.5,0.3c-0.1,0.2-0.2,0.5-0.2,0.9
		s0.1,0.7,0.2,0.9c0.2,0.2,0.3,0.3,0.6,0.3c0.2,0,0.4-0.1,0.6-0.3C95.7,32.1,95.8,31.8,95.8,31.4"/>
	<path class="st0" d="M99.5,27.1h1.9v1.3h-1.9V27.1z M99.5,29h1.9v4.9h-1.9V29z"/>
	<path class="st0" d="M105.3,29h0.9v1.4h-0.9v3.5h-1.9v-3.5h-0.7V29h0.7v-0.2c0-0.2,0-0.4,0.1-0.7c0-0.2,0.1-0.4,0.2-0.6
		s0.3-0.3,0.5-0.4s0.5-0.1,0.9-0.1c0.3,0,0.8,0,1.4,0.1l-0.2,1.1c-0.2,0-0.4-0.1-0.5-0.1c-0.2,0-0.3,0-0.4,0.1s-0.1,0.1-0.2,0.3
		C105.3,28.6,105.3,28.7,105.3,29"/>
	<path class="st0" d="M109.8,29h0.9v1.4h-0.9v3.5h-1.9v-3.5h-0.7V29h0.7v-0.2c0-0.2,0-0.4,0.1-0.7c0-0.2,0.1-0.4,0.2-0.6
		s0.3-0.3,0.5-0.4s0.5-0.1,0.9-0.1c0.3,0,0.8,0,1.4,0.1l-0.2,1.1c-0.2,0-0.4-0.1-0.5-0.1c-0.2,0-0.3,0-0.4,0.1s-0.1,0.1-0.2,0.3
		C109.8,28.6,109.8,28.7,109.8,29"/>
	<path class="st0" d="M117.3,31.9h-3.8c0,0.3,0.1,0.5,0.2,0.7c0.2,0.2,0.4,0.3,0.7,0.3c0.2,0,0.4,0,0.5-0.1s0.2-0.2,0.3-0.3l1.8,0.2
		c-0.3,0.5-0.6,0.8-1,1.1c-0.4,0.2-1,0.3-1.7,0.3c-0.6,0-1.2-0.1-1.5-0.3c-0.4-0.2-0.7-0.5-0.9-0.9c-0.2-0.4-0.4-0.9-0.4-1.4
		c0-0.8,0.2-1.4,0.7-1.9s1.2-0.7,2-0.7c0.7,0,1.3,0.1,1.7,0.3c0.4,0.2,0.7,0.5,0.9,0.9c0.2,0.4,0.3,0.9,0.3,1.6v0.2H117.3z
		 M115.4,31c0-0.4-0.1-0.6-0.3-0.8c-0.2-0.2-0.4-0.2-0.6-0.2c-0.3,0-0.5,0.1-0.7,0.4c-0.1,0.1-0.2,0.4-0.2,0.7h1.8V31z"/>
	<path class="st0" d="M118.8,29h1.8v0.8c0.2-0.3,0.3-0.6,0.5-0.7s0.4-0.2,0.7-0.2c0.3,0,0.6,0.1,0.9,0.3l-0.6,1.3
		c-0.2-0.1-0.4-0.1-0.5-0.1c-0.2,0-0.4,0.1-0.6,0.3c-0.2,0.3-0.3,0.8-0.3,1.6v1.6h-1.9V29z"/>
	<path class="st0" d="M129.2,31.9h-3.8c0,0.3,0.1,0.5,0.2,0.7c0.2,0.2,0.4,0.3,0.7,0.3c0.2,0,0.4,0,0.5-0.1s0.2-0.2,0.3-0.3l1.8,0.2
		c-0.3,0.5-0.6,0.8-1,1.1c-0.4,0.2-1,0.3-1.7,0.3c-0.6,0-1.2-0.1-1.5-0.3c-0.4-0.2-0.7-0.5-0.9-0.9c-0.2-0.4-0.4-0.9-0.4-1.4
		c0-0.8,0.2-1.4,0.7-1.9s1.2-0.7,2-0.7c0.7,0,1.3,0.1,1.7,0.3c0.4,0.2,0.7,0.5,0.9,0.9s0.3,0.9,0.3,1.6v0.2H129.2z M127.3,31
		c0-0.4-0.1-0.6-0.3-0.8c-0.2-0.2-0.4-0.2-0.6-0.2c-0.3,0-0.5,0.1-0.7,0.4c-0.1,0.1-0.2,0.4-0.2,0.7h1.8V31z"/>
	<path class="st0" d="M130.7,29h1.7v0.8c0.3-0.3,0.5-0.6,0.8-0.7s0.6-0.2,1-0.2c0.5,0,0.9,0.2,1.2,0.5s0.4,0.8,0.4,1.4v3.1H134v-2.7
		c0-0.3-0.1-0.5-0.2-0.7c-0.1-0.1-0.3-0.2-0.5-0.2s-0.4,0.1-0.5,0.3c-0.1,0.2-0.2,0.5-0.2,0.9v2.4h-1.9L130.7,29L130.7,29z"/>
	<path class="st0" d="M141.3,31.9l1.8,0.2c-0.1,0.4-0.3,0.7-0.5,1s-0.5,0.5-0.9,0.6c-0.3,0.2-0.8,0.2-1.3,0.2s-1,0-1.3-0.1
		s-0.6-0.3-0.9-0.5c-0.2-0.2-0.4-0.5-0.6-0.8c-0.1-0.3-0.2-0.7-0.2-1.2s0.1-0.9,0.3-1.3c0.1-0.2,0.3-0.5,0.5-0.7s0.4-0.3,0.7-0.4
		c0.4-0.2,0.8-0.2,1.4-0.2c0.8,0,1.4,0.1,1.8,0.4c0.4,0.3,0.7,0.7,0.9,1.3l-1.8,0.2c-0.1-0.2-0.2-0.4-0.3-0.5s-0.3-0.2-0.6-0.2
		s-0.6,0.1-0.8,0.3c-0.2,0.2-0.3,0.6-0.3,1s0.1,0.7,0.3,0.9s0.4,0.3,0.7,0.3c0.2,0,0.5-0.1,0.6-0.2C141,32.4,141.2,32.2,141.3,31.9"
		/>
	<path class="st0" d="M150,31.9h-3.8c0,0.3,0.1,0.5,0.2,0.7c0.2,0.2,0.4,0.3,0.7,0.3c0.2,0,0.4,0,0.5-0.1s0.2-0.2,0.3-0.3l1.8,0.2
		c-0.3,0.5-0.6,0.8-1,1.1c-0.4,0.2-1,0.3-1.7,0.3c-0.6,0-1.2-0.1-1.5-0.3c-0.4-0.2-0.7-0.5-0.9-0.9s-0.4-0.9-0.4-1.4
		c0-0.8,0.2-1.4,0.7-1.9s1.2-0.7,2-0.7c0.7,0,1.3,0.1,1.7,0.3c0.4,0.2,0.7,0.5,0.9,0.9s0.3,0.9,0.3,1.6v0.2H150z M148.1,31
		c0-0.4-0.1-0.6-0.3-0.8c-0.2-0.2-0.4-0.2-0.6-0.2c-0.3,0-0.5,0.1-0.7,0.4c-0.1,0.1-0.2,0.4-0.2,0.7h1.8V31z"/>
</g>
<path class="st0" d="M14.1,4.4c8.6-3.1,18.1,1.3,21.3,9.9c3.1,8.6-1.3,18.1-9.9,21.3c-8.6,3.1-18.1-1.3-21.3-9.9
	C1.2,17.6,5,8.7,12.6,5C13.1,4.8,13.6,4.6,14.1,4.4 M17.8,5.4l-3,17.3l10.9-6.1l-0.4,2.5L8.9,28.3l-1.3-1.1l3.3-18.9
	c-5.1,3.8-7.3,10.6-5,16.8c2.5,6.9,9.7,10.8,16.7,9.4l2.7-15.4l6.6-3.7l-2.8,16c4.6-3.9,6.6-10.4,4.4-16.3c-0.3-0.8-0.6-1.5-1-2.2
	l-6.8,3.8l0.5-2.7l5.2-2.9C28.2,6.9,23,4.7,17.8,5.4"/>
</svg>
